<?xml version="1.0" encoding="UTF-8" standalone="no"?>
<svg width="25px" height="25px" viewBox="0 0 143 145" version="1.1" xmlns="http://www.w3.org/2000/svg" xmlns:xlink="http://www.w3.org/1999/xlink" xmlns:sketch="http://www.bohemiancoding.com/sketch/ns">
    <!-- Generator: Sketch 3.5.1 (25234) - http://www.bohemiancoding.com/sketch -->
    <title>Untitled</title>
    <desc>Created with Sketch.</desc>
    <defs></defs>
    <g id="Page-1" stroke="none" stroke-width="1" fill="none" fill-rule="evenodd" sketch:type="MSPage">
        <g id="logo_googleg_48dp" sketch:type="MSLayerGroup">
            <path d="M142.1,74.1208134 C142.1,68.9817703 141.638636,64.0403828 140.781818,59.2966507 L72.5,59.2966507 L72.5,87.3307895 L111.518182,87.3307895 C109.8375,96.39 104.729545,104.065622 97.0511364,109.204665 L97.0511364,127.388971 L120.481818,127.388971 C134.190909,114.771962 142.1,96.1923445 142.1,74.1208134 L142.1,74.1208134 Z" id="Shape" fill="#fff" sketch:type="MSShapeGroup"></path>
            <path d="M72.5,144.947368 C92.075,144.947368 108.486364,138.457679 120.481818,127.388971 L97.0511364,109.204665 C90.5590909,113.553086 82.2545455,116.122608 72.5,116.122608 C53.6170455,116.122608 37.6340909,103.373828 31.9329545,86.2436842 L7.71136364,86.2436842 L7.71136364,105.020957 C19.6409091,128.706675 44.1590909,144.947368 72.5,144.947368 L72.5,144.947368 Z" id="Shape" fill="#fff" sketch:type="MSShapeGroup"></path>
            <path d="M31.9329545,86.2436842 C30.4829545,81.8952632 29.6590909,77.2503589 29.6590909,72.4736842 C29.6590909,67.6970096 30.4829545,63.0521053 31.9329545,58.7036842 L31.9329545,39.9264115 L7.71136364,39.9264115 C2.80113636,49.7103589 0,60.779067 0,72.4736842 C0,84.1683014 2.80113636,95.2370096 7.71136364,105.020957 L31.9329545,86.2436842 L31.9329545,86.2436842 Z" id="Shape" fill="#fff" sketch:type="MSShapeGroup"></path>
            <path d="M72.5,28.8247608 C83.1443182,28.8247608 92.7011364,32.4813876 100.214773,39.6628708 L121.009091,18.8761005 C108.453409,7.18148325 92.0420455,0 72.5,0 C44.1590909,0 19.6409091,16.2406938 7.71136364,39.9264115 L31.9329545,58.7036842 C37.6340909,41.5735407 53.6170455,28.8247608 72.5,28.8247608 L72.5,28.8247608 Z" id="Shape" fill="#fff" sketch:type="MSShapeGroup"></path>
            <path d="M0,0 L171.062092,0 L171.062092,171 L0,171 L0,0 Z" id="Shape" sketch:type="MSShapeGroup"></path>
        </g>
    </g>
</svg>