<?xml version="1.0" encoding="UTF-8" standalone="no"?>
<svg width="823px" height="873px" viewBox="0 0 823 873" version="1.1" xmlns="http://www.w3.org/2000/svg" xmlns:xlink="http://www.w3.org/1999/xlink">
    <!-- Generator: Sketch 3.8.3 (29802) - http://www.bohemiancoding.com/sketch -->
    <title>idt-illustration</title>
    <desc>Created with Sketch.</desc>
    <defs>
        <rect id="path-1" x="36" y="34" width="751" height="800" rx="8"></rect>
        <filter x="-50%" y="-50%" width="200%" height="200%" filterUnits="objectBoundingBox" id="filter-2">
            <feOffset dx="0" dy="2" in="SourceAlpha" result="shadowOffsetOuter1"></feOffset>
            <feGaussianBlur stdDeviation="6" in="shadowOffsetOuter1" result="shadowBlurOuter1"></feGaussianBlur>
            <feComposite in="shadowBlurOuter1" in2="SourceAlpha" operator="out" result="shadowBlurOuter1"></feComposite>
            <feColorMatrix values="0 0 0 0 0.964705882   0 0 0 0 0.964705882   0 0 0 0 0.964705882  0 0 0 1 0" type="matrix" in="shadowBlurOuter1"></feColorMatrix>
        </filter>
        <mask id="mask-3" maskContentUnits="userSpaceOnUse" maskUnits="objectBoundingBox" x="0" y="0" width="751" height="800" fill="white">
            <use xlink:href="#path-1"></use>
        </mask>
    </defs>
    <g id="Page-1" stroke="none" stroke-width="1" fill="none" fill-rule="evenodd">
        <g id="Rectangle-7">
            <use fill="black" fill-opacity="1" filter="url(#filter-2)" xlink:href="#path-1"></use>
            <use stroke="#E0E0E0" mask="url(#mask-3)" stroke-width="2" fill="#FFFFFF" fill-rule="evenodd" xlink:href="#path-1"></use>
        </g>
        <path d="M296.81762,149.01109 L296.81762,170.40357 L292.24584,170.40357 L292.24584,149.01109 L285,149.01109 L285,145 L304.14972,145 L304.14972,149.01109 L296.81762,149.01109 Z M313.42267,167.38447 C314.515302,167.38447 315.39227,167.132881 316.0536,166.629695 C316.71493,166.126509 317.189355,165.357365 317.47689,164.32224 L321.40172,165.48675 C320.999171,167.269466 320.107827,168.620859 318.72766,169.54097 C317.347493,170.461081 315.521675,170.92113 313.25015,170.92113 C310.432309,170.92113 308.203948,170.001033 306.565,168.16081 C304.926052,166.320587 304.10659,163.819072 304.10659,160.65619 C304.10659,157.320787 304.93324,154.711448 306.586565,152.828095 C308.23989,150.944742 310.518569,150.00308 313.42267,150.00308 C315.952976,150.00308 317.929748,150.772224 319.353045,152.310535 C320.776342,153.848846 321.48798,155.955007 321.48798,158.62908 C321.48798,159.060382 321.459227,159.513243 321.40172,159.987675 C321.344213,160.462107 321.257954,160.900591 321.14294,161.30314 L308.46272,161.30314 C308.54898,163.200869 309.030594,164.68884 309.907575,165.767095 C310.784556,166.84535 311.956243,167.38447 313.42267,167.38447 L313.42267,167.38447 Z M313.20702,153.45348 C311.913114,153.45348 310.856439,153.884776 310.036965,154.74738 C309.217491,155.609984 308.735877,156.817612 308.59211,158.3703 L317.08872,158.3703 C317.117473,158.28404 317.13185,158.183404 317.13185,158.06839 L317.13185,157.59396 C317.13185,156.386314 316.772437,155.394334 316.0536,154.61799 C315.334763,153.841646 314.385913,153.45348 313.20702,153.45348 L313.20702,153.45348 Z M332.0117,167.60012 C333.133086,167.60012 334.096313,167.298213 334.90141,166.69439 C335.706507,166.090567 336.10905,165.299858 336.10905,164.32224 L336.10905,161.73444 C333.751265,161.676933 332.004517,161.914146 330.868755,162.446085 C329.732993,162.978024 329.16512,163.833427 329.16512,165.01232 C329.16512,165.788664 329.423897,166.414043 329.94146,166.888475 C330.459023,167.362907 331.149096,167.60012 332.0117,167.60012 L332.0117,167.60012 Z M333.21934,150.00308 C335.605879,150.00308 337.431697,150.535011 338.69685,151.59889 C339.962003,152.662769 340.59457,154.22981 340.59457,156.30006 L340.59457,165.2711 C340.59457,165.874923 340.71677,166.327783 340.961175,166.629695 C341.20558,166.931607 341.572181,167.08256 342.06099,167.08256 C342.291018,167.08256 342.499477,167.060995 342.686375,167.017865 C342.873273,166.974735 343.052979,166.924417 343.2255,166.86691 L343.2255,170.27418 C342.880458,170.446701 342.49948,170.568901 342.082555,170.640785 C341.66563,170.712669 341.212769,170.74861 340.72396,170.74861 C339.516314,170.74861 338.553087,170.482644 337.83425,169.950705 C337.115413,169.418766 336.640988,168.620869 336.41096,167.55699 C335.979658,168.678376 335.26802,169.519402 334.276025,170.080095 C333.28403,170.640788 332.040461,170.92113 330.54528,170.92113 C328.762564,170.92113 327.3321,170.432328 326.253845,169.45471 C325.17559,168.477092 324.63647,167.154452 324.63647,165.48675 C324.63647,163.157718 325.599697,161.446912 327.52618,160.35428 C329.452663,159.261648 332.313591,158.801599 336.10905,158.97412 L336.10905,156.73136 C336.10905,155.696235 335.835896,154.905526 335.28958,154.35921 C334.743264,153.812894 333.952555,153.53974 332.91743,153.53974 C331.939812,153.53974 331.170668,153.805706 330.609975,154.337645 C330.049282,154.869584 329.740187,155.638728 329.68268,156.6451 L325.28342,155.91189 C325.427187,154.042914 326.20352,152.590885 327.61244,151.55576 C329.02136,150.520635 330.890308,150.00308 333.21934,150.00308 L333.21934,150.00308 Z M357.50153,150.00308 C359.054218,150.00308 360.28341,150.369681 361.189145,151.102895 C362.09488,151.836109 362.662752,152.935913 362.89278,154.40234 C363.352836,152.964666 364.129168,151.87205 365.2218,151.12446 C366.314432,150.37687 367.651449,150.00308 369.23289,150.00308 C371.073113,150.00308 372.503577,150.527823 373.524325,151.577325 C374.545073,152.626827 375.05544,154.129174 375.05544,156.08441 L375.05544,170.40357 L370.52679,170.40357 L370.52679,157.68022 C370.52679,156.415067 370.268013,155.459028 369.75045,154.812075 C369.232887,154.165122 368.470932,153.84165 367.46456,153.84165 C366.199407,153.84165 365.19305,154.301699 364.44546,155.22181 C363.69787,156.141921 363.32408,157.435808 363.32408,159.10351 L363.32408,170.40357 L358.83856,170.40357 L358.83856,157.68022 C358.83856,156.415067 358.579783,155.459028 358.06222,154.812075 C357.544657,154.165122 356.768325,153.84165 355.7332,153.84165 C354.468047,153.84165 353.468879,154.308887 352.735665,155.243375 C352.002451,156.177863 351.63585,157.478938 351.63585,159.14664 L351.63585,170.40357 L347.1072,170.40357 L347.1072,150.47751 L350.77325,150.47751 L351.33394,154.31608 C351.822749,152.90716 352.591893,151.836109 353.641395,151.102895 C354.690897,150.369681 355.977596,150.00308 357.50153,150.00308 L357.50153,150.00308 Z M398.8632,148.83857 L395.45593,148.83857 L395.45593,157.68022 L398.90633,157.68022 C400.430264,157.68022 401.551633,157.327995 402.27047,156.623535 C402.989307,155.919075 403.34872,154.804894 403.34872,153.28096 C403.34872,151.814533 402.97493,150.70754 402.22734,149.95995 C401.47975,149.21236 400.358381,148.83857 398.8632,148.83857 L398.8632,148.83857 Z M395.45593,161.47566 L395.45593,170.40357 L390.84102,170.40357 L390.84102,145 L398.99259,145 C402.011705,145 404.276007,145.668508 405.785565,147.005545 C407.295123,148.342582 408.04989,150.362483 408.04989,153.06531 C408.04989,155.71063 407.295123,157.773661 405.785565,159.254465 C404.276007,160.735269 402.15547,161.47566 399.42389,161.47566 L395.45593,161.47566 Z M424.56868,150.04621 L424.13738,155.09242 C423.849845,155.00616 423.547938,154.941465 423.23165,154.898335 C422.915362,154.855205 422.570325,154.83364 422.19653,154.83364 C420.643842,154.83364 419.364332,155.365571 418.35796,156.42945 C417.351588,157.493329 416.84841,158.902228 416.84841,160.65619 L416.84841,170.40357 L412.31976,170.40357 L412.31976,150.47751 L416.15833,150.47751 L416.71902,155.91189 C417.179076,153.870393 418.077608,152.35367 419.414645,151.361675 C420.751682,150.36968 422.469676,149.931196 424.56868,150.04621 L424.56868,150.04621 Z M444.19283,160.35428 C444.19283,163.66093 443.36618,166.248704 441.712855,168.11768 C440.05953,169.986656 437.795228,170.92113 434.91988,170.92113 C432.044532,170.92113 429.78023,169.986656 428.126905,168.11768 C426.47358,166.248704 425.64693,163.66093 425.64693,160.35428 C425.64693,157.076384 426.466392,154.531739 428.10534,152.72027 C429.744288,150.908801 432.015779,150.00308 434.91988,150.00308 C437.823981,150.00308 440.095472,150.908801 441.73442,152.72027 C443.373368,154.531739 444.19283,157.076384 444.19283,160.35428 L444.19283,160.35428 Z M439.70731,160.35428 C439.70731,158.111509 439.304767,156.429456 438.49967,155.30807 C437.694573,154.186684 436.501321,153.626 434.91988,153.626 C433.309685,153.626 432.102057,154.186684 431.29696,155.30807 C430.491863,156.429456 430.08932,158.111509 430.08932,160.35428 C430.08932,162.712065 430.491863,164.473189 431.29696,165.637705 C432.102057,166.802221 433.309685,167.38447 434.91988,167.38447 C436.530075,167.38447 437.730514,166.802221 438.521235,165.637705 C439.311956,164.473189 439.70731,162.712065 439.70731,160.35428 L439.70731,160.35428 Z M447.6001,157.0764 C447.6001,154.891136 448.347679,153.165953 449.84286,151.9008 C451.338041,150.635647 453.365131,150.00308 455.92419,150.00308 C457.103083,150.00308 458.174134,150.12528 459.137375,150.369685 C460.100616,150.61409 460.941643,150.980691 461.66048,151.4695 C462.005522,151.239472 462.285864,150.930377 462.501515,150.542205 C462.717166,150.154033 462.940002,149.456772 463.17003,148.4504 L466.92234,149.7443 C466.778573,150.635658 466.390406,151.41199 465.75783,152.07332 C465.125254,152.73465 464.363298,153.165946 463.47194,153.36722 C463.788228,153.884783 464.018253,154.452655 464.16202,155.070855 C464.305787,155.689055 464.37767,156.357563 464.37767,157.0764 C464.37767,159.204157 463.608526,160.879022 462.070215,162.101045 C460.531904,163.323068 458.468873,163.93407 455.88106,163.93407 C455.334744,163.93407 454.838754,163.905317 454.393075,163.84781 C453.947396,163.790303 453.595171,163.71842 453.33639,163.63216 C452.933841,163.862188 452.631934,164.135342 452.43066,164.45163 C452.229386,164.767918 452.12875,165.141708 452.12875,165.57301 C452.12875,166.033066 452.29408,166.392479 452.624745,166.65126 C452.95541,166.910041 453.437024,167.03943 454.0696,167.03943 L459.2452,167.03943 C461.459218,167.03943 463.170024,167.53542 464.37767,168.527415 C465.585316,169.51941 466.18913,170.921121 466.18913,172.73259 C466.18913,174.946608 465.233091,176.628661 463.320985,177.7788 C461.408879,178.928939 458.684528,179.504 455.14785,179.504 C452.243749,179.504 450.029764,179.072704 448.50583,178.2101 C446.981896,177.347496 446.21994,176.067985 446.21994,174.37153 C446.21994,173.106377 446.6728,172.085644 447.578535,171.3093 C448.48427,170.532956 449.756592,170.087284 451.39554,169.97227 C450.504182,169.88601 449.792544,169.540973 449.260605,168.93715 C448.728666,168.333327 448.4627,167.600124 448.4627,166.73752 C448.4627,165.846162 448.728666,165.084206 449.260605,164.45163 C449.792544,163.819054 450.561688,163.359005 451.56806,163.07147 C450.2454,162.4964 449.25342,161.71288 448.59209,160.720885 C447.93076,159.72889 447.6001,158.514074 447.6001,157.0764 L447.6001,157.0764 Z M450.44668,173.68145 C450.44668,174.572808 450.877976,175.248504 451.74058,175.70856 C452.603184,176.168616 453.897071,176.39864 455.62228,176.39864 C457.807544,176.39864 459.403338,176.161427 460.40971,175.686995 C461.416082,175.212563 461.91926,174.457795 461.91926,173.42267 C461.91926,172.646326 461.667671,172.064077 461.164485,171.675905 C460.661299,171.287733 459.892155,171.09365 458.85703,171.09365 L454.32838,171.09365 C453.063227,171.09365 452.1,171.309298 451.43867,171.7406 C450.77734,172.171902 450.44668,172.818846 450.44668,173.68145 L450.44668,173.68145 Z M455.92419,153.1947 C454.68779,153.223453 453.746128,153.561302 453.099175,154.208255 C452.452222,154.855208 452.12875,155.79687 452.12875,157.03327 C452.12875,158.212163 452.466598,159.139448 453.142305,159.815155 C453.818012,160.490862 454.745297,160.82871 455.92419,160.82871 C457.189343,160.82871 458.159758,160.505238 458.835465,159.858285 C459.511172,159.211332 459.84902,158.26967 459.84902,157.03327 C459.84902,155.79687 459.511172,154.84802 458.835465,154.18669 C458.159758,153.52536 457.189343,153.1947 455.92419,153.1947 L455.92419,153.1947 Z M482.27662,150.04621 L481.84532,155.09242 C481.557785,155.00616 481.255878,154.941465 480.93959,154.898335 C480.623302,154.855205 480.278265,154.83364 479.90447,154.83364 C478.351782,154.83364 477.072272,155.365571 476.0659,156.42945 C475.059528,157.493329 474.55635,158.902228 474.55635,160.65619 L474.55635,170.40357 L470.0277,170.40357 L470.0277,150.47751 L473.86627,150.47751 L474.42696,155.91189 C474.887016,153.870393 475.785548,152.35367 477.122585,151.361675 C478.459622,150.36968 480.177616,149.931196 482.27662,150.04621 L482.27662,150.04621 Z M492.67095,167.38447 C493.763582,167.38447 494.64055,167.132881 495.30188,166.629695 C495.96321,166.126509 496.437635,165.357365 496.72517,164.32224 L500.65,165.48675 C500.247451,167.269466 499.356107,168.620859 497.97594,169.54097 C496.595773,170.461081 494.769955,170.92113 492.49843,170.92113 C489.680589,170.92113 487.452228,170.001033 485.81328,168.16081 C484.174332,166.320587 483.35487,163.819072 483.35487,160.65619 C483.35487,157.320787 484.18152,154.711448 485.834845,152.828095 C487.48817,150.944742 489.766849,150.00308 492.67095,150.00308 C495.201256,150.00308 497.178028,150.772224 498.601325,152.310535 C500.024622,153.848846 500.73626,155.955007 500.73626,158.62908 C500.73626,159.060382 500.707507,159.513243 500.65,159.987675 C500.592493,160.462107 500.506234,160.900591 500.39122,161.30314 L487.711,161.30314 C487.79726,163.200869 488.278874,164.68884 489.155855,165.767095 C490.032836,166.84535 491.204523,167.38447 492.67095,167.38447 L492.67095,167.38447 Z M492.4553,153.45348 C491.161394,153.45348 490.104719,153.884776 489.285245,154.74738 C488.465771,155.609984 487.984157,156.817612 487.84039,158.3703 L496.337,158.3703 C496.365753,158.28404 496.38013,158.183404 496.38013,158.06839 C496.38013,157.953376 496.38013,157.795234 496.38013,157.59396 C496.38013,156.386314 496.020717,155.394334 495.30188,154.61799 C494.583043,153.841646 493.634193,153.45348 492.4553,153.45348 L492.4553,153.45348 Z M511.4325,170.92113 C508.959701,170.92113 507.090753,170.518587 505.8256,169.71349 C504.560447,168.908393 503.769738,167.628882 503.45345,165.87492 L507.33515,164.53789 C507.507671,165.573015 507.946155,166.363724 508.650615,166.91004 C509.355075,167.456356 510.311114,167.72951 511.51876,167.72951 C512.611392,167.72951 513.473984,167.52105 514.10656,167.104125 C514.739136,166.6872 515.05542,166.10495 515.05542,165.35736 C515.05542,164.60977 514.832584,164.02752 514.386905,163.610595 C513.941226,163.19367 513.186459,162.855821 512.12258,162.59704 L509.18974,161.90696 C507.464531,161.475658 506.199397,160.792773 505.3943,159.858285 C504.589203,158.923797 504.18666,157.694604 504.18666,156.17067 C504.18666,154.18668 504.855168,152.662769 506.192205,151.59889 C507.529242,150.535011 509.419754,150.00308 511.8638,150.00308 C514.192832,150.00308 515.968332,150.45594 517.190355,151.361675 C518.412378,152.26741 519.109639,153.640367 519.28216,155.48059 L514.96916,155.99815 C514.8829,155.106792 514.566616,154.445472 514.0203,154.01417 C513.473984,153.582868 512.668899,153.36722 511.60502,153.36722 C510.656155,153.36722 509.908576,153.57568 509.36226,153.992605 C508.815944,154.40953 508.54279,154.977403 508.54279,155.69624 C508.54279,156.415077 508.736873,156.961385 509.125045,157.33518 C509.513217,157.708975 510.138596,157.996506 511.0012,158.19778 L513.76152,158.8016 C515.716756,159.261656 517.154409,159.98767 518.07452,160.979665 C518.994631,161.97166 519.45468,163.301488 519.45468,164.96919 C519.45468,166.895673 518.764607,168.369267 517.38444,169.390015 C516.004273,170.410763 514.020313,170.92113 511.4325,170.92113 L511.4325,170.92113 Z M529.89214,170.92113 C527.419341,170.92113 525.550393,170.518587 524.28524,169.71349 C523.020087,168.908393 522.229378,167.628882 521.91309,165.87492 L525.79479,164.53789 C525.967311,165.573015 526.405795,166.363724 527.110255,166.91004 C527.814715,167.456356 528.770754,167.72951 529.9784,167.72951 C531.071032,167.72951 531.933624,167.52105 532.5662,167.104125 C533.198776,166.6872 533.51506,166.10495 533.51506,165.35736 C533.51506,164.60977 533.292224,164.02752 532.846545,163.610595 C532.400866,163.19367 531.646099,162.855821 530.58222,162.59704 L527.64938,161.90696 C525.924171,161.475658 524.659037,160.792773 523.85394,159.858285 C523.048843,158.923797 522.6463,157.694604 522.6463,156.17067 C522.6463,154.18668 523.314808,152.662769 524.651845,151.59889 C525.988882,150.535011 527.879394,150.00308 530.32344,150.00308 C532.652472,150.00308 534.427972,150.45594 535.649995,151.361675 C536.872018,152.26741 537.569279,153.640367 537.7418,155.48059 L533.4288,155.99815 C533.34254,155.106792 533.026256,154.445472 532.47994,154.01417 C531.933624,153.582868 531.128539,153.36722 530.06466,153.36722 C529.115795,153.36722 528.368216,153.57568 527.8219,153.992605 C527.275584,154.40953 527.00243,154.977403 527.00243,155.69624 C527.00243,156.415077 527.196513,156.961385 527.584685,157.33518 C527.972857,157.708975 528.598236,157.996506 529.46084,158.19778 L532.22116,158.8016 C534.176396,159.261656 535.614049,159.98767 536.53416,160.979665 C537.454271,161.97166 537.91432,163.301488 537.91432,164.96919 C537.91432,166.895673 537.224247,168.369267 535.84408,169.390015 C534.463913,170.410763 532.479953,170.92113 529.89214,170.92113 L529.89214,170.92113 Z" id="Team-Progress" fill-opacity="0.9" fill="#3E4036"></path>
        <g id="Done" transform="translate(112.000000, 241.000000)">
            <circle fill="#2ECC72" cx="34" cy="34" r="34"></circle>
            <polyline id="Shape" stroke="#FFFFFF" stroke-width="10" stroke-linecap="round" points="19 34.8357668 34.3439385 44.2894331 49 23"></polyline>
        </g>
        <g id="Done" transform="translate(112.000000, 329.000000)">
            <circle fill="#2ECC72" cx="34" cy="34" r="34"></circle>
            <polyline id="Shape" stroke="#FFFFFF" stroke-width="10" stroke-linecap="round" points="19 34.8357668 34.3439385 44.2894331 49 23"></polyline>
        </g>
        <g id="Done" transform="translate(112.000000, 417.000000)">
            <circle fill="#2ECC72" cx="34" cy="34" r="34"></circle>
            <polyline id="Shape" stroke="#FFFFFF" stroke-width="10" stroke-linecap="round" points="19 34.8357668 34.3439385 44.2894331 49 23"></polyline>
        </g>
        <g id="Goal" transform="translate(112.000000, 505.000000)">
            <circle id="Done" fill="#4B8FFB" cx="34" cy="34" r="34"></circle>
            <rect id="Rectangle-path" stroke="#FFFFFF" stroke-width="7" stroke-linecap="round" x="21" y="22" width="25" height="25"></rect>
        </g>
        <g id="Blocked" transform="translate(112.000000, 681.000000)">
            <circle id="Done" fill="#E84D3C" cx="34" cy="34" r="34"></circle>
            <g id="x" transform="translate(22.000000, 22.000000)" stroke="#FFFFFF" stroke-width="8" stroke-linecap="round">
                <path d="M0,0.598346846 L23.8277027,25.3313256" id="Shape"></path>
                <path d="M23.8277027,0.598346846 L0,25.3313256" id="Shape"></path>
            </g>
        </g>
        <rect id="Rectangle-2" fill="#ECEFF4" x="210" y="251" width="500" height="48"></rect>
        <rect id="Rectangle-2" fill="#ECEFF4" x="210" y="339" width="500" height="48"></rect>
        <rect id="Rectangle-2" fill="#ECEFF4" x="210" y="427" width="500" height="48"></rect>
        <rect id="Rectangle-2" fill="#ECEFF4" x="210" y="515" width="500" height="48"></rect>
        <g id="Goal" transform="translate(112.000000, 593.000000)">
            <circle id="Done" fill="#4B8FFB" cx="34" cy="34" r="34"></circle>
            <rect id="Rectangle-path" stroke="#FFFFFF" stroke-width="7" stroke-linecap="round" x="21" y="22" width="25" height="25"></rect>
        </g>
        <rect id="Rectangle-2" fill="#ECEFF4" x="210" y="603" width="500" height="48"></rect>
        <rect id="Rectangle-2" fill="#ECEFF4" x="210" y="691" width="500" height="48"></rect>
    </g>
</svg>